<svg xmlns="http://www.w3.org/2000/svg" version="1.1" xmlns:xlink="http://www.w3.org/1999/xlink" xmlns:svgjs="http://svgjs.dev/svgjs" width="1440" height="560" preserveAspectRatio="none" viewBox="0 0 1440 560"><g mask="url(&quot;#SvgjsMask1000&quot;)" fill="none"><rect width="1440" height="560" x="0" y="0" fill="#0e2a47"></rect><path d="M0,619.312C114.424,617.219,182.687,491.453,264.238,411.162C329.998,346.418,389.912,279.503,429.709,196.242C470.083,111.773,508.619,21.455,494.765,-71.136C480.943,-163.515,413.786,-234.991,354.397,-307.087C293.568,-380.93,233.091,-456.95,145.413,-495.232C50.96,-536.473,-53.722,-545.683,-155.546,-529.741C-267.325,-512.24,-377.569,-475.688,-461.811,-400.162C-552.297,-319.039,-636.868,-213.845,-643.263,-92.487C-649.554,26.889,-565.034,129.232,-494.805,225.97C-435.406,307.79,-349.672,358.029,-270.525,420.946C-181.183,491.968,-114.113,621.4,0,619.312" fill="#091b2e"></path><path d="M1440 953.9549999999999C1518.681 948.905 1598.158 951.145 1668.547 915.626 1743.714 877.696 1830.167 829.028 1849.818 747.158 1869.5720000000001 664.86 1793.69 592.924 1765.126 513.254 1743.223 452.161 1743.95 382.502 1701.4850000000001 333.422 1659.006 284.326 1590.636 273.692 1532.628 244.539 1459.7 207.887 1396.142 121.36000000000001 1316.686 140.03199999999998 1238.146 158.48899999999998 1231.097 272.6 1173.37 328.964 1107.7359999999999 393.049 966.7570000000001 399.36699999999996 957.6 490.641 948.2860000000001 583.484 1093.6190000000001 615.718 1136.278 698.705 1175.734 775.462 1125.719 890.6990000000001 1191.789 946.225 1256.469 1000.582 1355.685 959.366 1440 953.9549999999999" fill="#133960"></path></g><defs><mask id="SvgjsMask1000"><rect width="1440" height="560" fill="#ffffff"></rect></mask></defs></svg>